<?xml version="1.0" encoding="UTF-8" standalone="no"?>
<svg width="24px" height="26px" viewBox="0 0 24 26" version="1.1" xmlns="http://www.w3.org/2000/svg" xmlns:xlink="http://www.w3.org/1999/xlink">
    <!-- Generator: Sketch 47 (45396) - http://www.bohemiancoding.com/sketch -->
    <title>Page 1</title>
    <desc>Created with Sketch.</desc>
    <defs>
        <polygon id="path-1" points="16.6153846 0.768461538 16.6153846 12.7684615 -0.000230769231 12.7684615 -0.000230769231 0.768461538 16.6153846 0.768461538"></polygon>
    </defs>
    <g id="Gestion" stroke="none" stroke-width="1" fill="none" fill-rule="evenodd">
        <g id="Large-Devices:-Desktops---12-col-Copy-36" transform="translate(-1042.000000, -170.000000)">
            <g id="Page-1" transform="translate(1042.000000, 170.000000)">
                <g id="Group-3" transform="translate(7.384615, 7.231385)">
                    <mask id="mask-2" fill="white">
                        <use xlink:href="#path-1"></use>
                    </mask>
                    <g id="Clip-2"></g>
                    <path d="M16.3449231,1.03892308 C16.1649231,0.858923077 15.9286154,0.768461538 15.6923077,0.768461538 C15.456,0.768461538 15.2196923,0.858923077 15.0396923,1.03892308 L5.53846154,10.5392308 L1.57569231,6.57738462 C1.39569231,6.39646154 1.15938462,6.30692308 0.923076923,6.30692308 C0.686769231,6.30692308 0.450461538,6.39646154 0.270461538,6.57738462 C-0.0904615385,6.93738462 -0.0904615385,7.52169231 0.270461538,7.88261538 L4.88584615,12.498 C5.06584615,12.678 5.30215385,12.7684615 5.53846154,12.7684615 C5.77476923,12.7684615 6.01107692,12.678 6.19107692,12.498 L16.3449231,2.34415385 C16.7058462,1.98323077 16.7058462,1.39984615 16.3449231,1.03892308" id="Fill-1" fill="#FFFFFF" mask="url(#mask-2)"></path>
                </g>
                <g id="Group-6" transform="translate(0.000000, 0.769846)" fill="#FFFFFF">
                    <path d="M13.7542154,4.51486154 C13.7542154,4.63763077 13.6545231,4.73824615 13.5308308,4.73824615 L6.65390769,4.73824615 C6.53113846,4.73824615 6.43052308,4.63763077 6.43052308,4.51486154 L6.43052308,2.22286154 C6.43052308,2.09916923 6.53113846,1.99947692 6.65390769,1.99947692 L13.5308308,1.99947692 C13.6545231,1.99947692 13.7542154,2.09916923 13.7542154,2.22286154 L13.7542154,4.51486154 Z M20.1852923,7.51116923 L20.1852923,5.66132308 C20.1852923,3.88809231 18.7425231,2.44532308 16.9692923,2.44532308 L15.6003692,2.44532308 L15.6003692,2.22286154 C15.6003692,1.08193846 14.6717538,0.153323077 13.5308308,0.153323077 L6.65390769,0.153323077 C5.51298462,0.153323077 4.58436923,1.08193846 4.58436923,2.22286154 L4.58436923,2.44532308 L3.21544615,2.44532308 C1.44221538,2.44532308 0.000369230769,3.88809231 0.000369230769,5.66132308 L0.000369230769,21.7071692 C0.000369230769,23.4804 1.44221538,24.9231692 3.21544615,24.9231692 L16.9692923,24.9231692 C18.7425231,24.9231692 20.1852923,23.4804 20.1852923,21.7071692 L20.1852923,14.5782462 L18.3391385,16.4244 L18.3391385,21.7071692 C18.3391385,22.4631692 17.7252923,23.0770154 16.9692923,23.0770154 L3.21544615,23.0770154 C2.46036923,23.0770154 1.84652308,22.4631692 1.84652308,21.7071692 L1.84652308,5.66132308 C1.84652308,4.90624615 2.46036923,4.29147692 3.21544615,4.29147692 L4.58436923,4.29147692 L4.58436923,4.51486154 C4.58436923,5.65578462 5.51298462,6.5844 6.65390769,6.5844 L13.5308308,6.5844 C14.6717538,6.5844 15.6003692,5.65578462 15.6003692,4.51486154 L15.6003692,4.29147692 L16.9692923,4.29147692 C17.7252923,4.29147692 18.3391385,4.90624615 18.3391385,5.66132308 L18.3391385,9.35732308 L20.1852923,7.51116923 Z" id="Fill-4"></path>
                </g>
            </g>
        </g>
    </g>
</svg>