<?xml version="1.0" encoding="UTF-8" standalone="no"?>
<svg width="15px" height="17px" viewBox="0 0 15 17" version="1.1" xmlns="http://www.w3.org/2000/svg" xmlns:xlink="http://www.w3.org/1999/xlink">
    <!-- Generator: Sketch 47 (45396) - http://www.bohemiancoding.com/sketch -->
    <title>Page 1 Copy</title>
    <desc>Created with Sketch.</desc>
    <defs>
        <polygon id="path-1" points="10.3846154 0.480288462 10.3846154 7.98028846 -0.000144230769 7.98028846 -0.000144230769 0.480288462 10.3846154 0.480288462"></polygon>
    </defs>
    <g id="Gestion" stroke="none" stroke-width="1" fill="none" fill-rule="evenodd">
        <g id="Large-Devices:-Desktops---12-col-Copy-36" transform="translate(-1211.000000, -243.000000)">
            <g id="Page-1-Copy" transform="translate(1211.000000, 243.000000)">
                <g id="Group-3" transform="translate(4.615385, 4.519615)">
                    <mask id="mask-2" fill="white">
                        <use xlink:href="#path-1"></use>
                    </mask>
                    <g id="Clip-2"></g>
                    <path d="M10.2155769,0.649326923 C10.1030769,0.536826923 9.95538462,0.480288462 9.80769231,0.480288462 C9.66,0.480288462 9.51230769,0.536826923 9.39980769,0.649326923 L3.46153846,6.58701923 L0.984807692,4.11086538 C0.872307692,3.99778846 0.724615385,3.94182692 0.576923077,3.94182692 C0.429230769,3.94182692 0.281538462,3.99778846 0.169038462,4.11086538 C-0.0565384615,4.33586538 -0.0565384615,4.70105769 0.169038462,4.92663462 L3.05365385,7.81125 C3.16615385,7.92375 3.31384615,7.98028846 3.46153846,7.98028846 C3.60923077,7.98028846 3.75692308,7.92375 3.86942308,7.81125 L10.2155769,1.46509615 C10.4411538,1.23951923 10.4411538,0.874903846 10.2155769,0.649326923" id="Fill-1" fill="#FFFFFF" mask="url(#mask-2)"></path>
                </g>
                <g id="Group-6" transform="translate(0.000000, 0.481154)" fill="#FFFFFF">
                    <path d="M8.59638462,2.82178846 C8.59638462,2.89851923 8.53407692,2.96140385 8.45676923,2.96140385 L4.15869231,2.96140385 C4.08196154,2.96140385 4.01907692,2.89851923 4.01907692,2.82178846 L4.01907692,1.38928846 C4.01907692,1.31198077 4.08196154,1.24967308 4.15869231,1.24967308 L8.45676923,1.24967308 C8.53407692,1.24967308 8.59638462,1.31198077 8.59638462,1.38928846 L8.59638462,2.82178846 Z M12.6158077,4.69448077 L12.6158077,3.53832692 C12.6158077,2.43005769 11.7140769,1.52832692 10.6058077,1.52832692 L9.75023077,1.52832692 L9.75023077,1.38928846 C9.75023077,0.676211538 9.16984615,0.0958269231 8.45676923,0.0958269231 L4.15869231,0.0958269231 C3.44561538,0.0958269231 2.86523077,0.676211538 2.86523077,1.38928846 L2.86523077,1.52832692 L2.00965385,1.52832692 C0.901384615,1.52832692 0.000230769231,2.43005769 0.000230769231,3.53832692 L0.000230769231,13.5669808 C0.000230769231,14.67525 0.901384615,15.5769808 2.00965385,15.5769808 L10.6058077,15.5769808 C11.7140769,15.5769808 12.6158077,14.67525 12.6158077,13.5669808 L12.6158077,9.11140385 L11.4619615,10.26525 L11.4619615,13.5669808 C11.4619615,14.0394808 11.0783077,14.4231346 10.6058077,14.4231346 L2.00965385,14.4231346 C1.53773077,14.4231346 1.15407692,14.0394808 1.15407692,13.5669808 L1.15407692,3.53832692 C1.15407692,3.06640385 1.53773077,2.68217308 2.00965385,2.68217308 L2.86523077,2.68217308 L2.86523077,2.82178846 C2.86523077,3.53486538 3.44561538,4.11525 4.15869231,4.11525 L8.45676923,4.11525 C9.16984615,4.11525 9.75023077,3.53486538 9.75023077,2.82178846 L9.75023077,2.68217308 L10.6058077,2.68217308 C11.0783077,2.68217308 11.4619615,3.06640385 11.4619615,3.53832692 L11.4619615,5.84832692 L12.6158077,4.69448077 Z" id="Fill-4"></path>
                </g>
            </g>
        </g>
    </g>
</svg>