<?xml version="1.0" encoding="UTF-8" standalone="no"?>
<svg width="72px" height="72px" viewBox="0 0 72 72" version="1.1" xmlns="http://www.w3.org/2000/svg" xmlns:xlink="http://www.w3.org/1999/xlink">
    <!-- Generator: Sketch 47 (45396) - http://www.bohemiancoding.com/sketch -->
    <title>baseline-inbox-24px</title>
    <desc>Created with Sketch.</desc>
    <defs></defs>
    <g id="Gestion" stroke="none" stroke-width="1" fill="none" fill-rule="evenodd" opacity="0.142898787">
        <g id="Large-Devices:-Desktops---12-col-Copy-23" transform="translate(-766.000000, -444.000000)">
            <g id="baseline-inbox-24px" transform="translate(754.000000, 432.000000)">
                <path d="M76,12 L19.96,12 C15.52,12 12.04,15.56 12.04,20 L12,76 C12,80.4 15.52,84 19.96,84 L76,84 C80.4,84 84,80.4 84,76 L84,20 C84,15.56 80.4,12 76,12 Z M76,60 L60,60 C60,66.64 54.6,72 48,72 C41.4,72 36,66.64 36,60 L19.96,60 L19.96,20 L76,20 L76,60 Z" id="Shape" fill="#000000" fill-rule="nonzero"></path>
                <polygon id="Shape" points="0 0 96 0 96 96 0 96"></polygon>
            </g>
        </g>
    </g>
</svg>