<?xml version="1.0" encoding="UTF-8" standalone="no"?>
<svg width="38px" height="38px" viewBox="0 0 38 38" version="1.1" xmlns="http://www.w3.org/2000/svg" xmlns:xlink="http://www.w3.org/1999/xlink">
    <!-- Generator: Sketch 48.2 (47327) - http://www.bohemiancoding.com/sketch -->
    <title>round-block-24px (1)</title>
    <desc>Created with Sketch.</desc>
    <defs></defs>
    <g id="Design" stroke="none" stroke-width="1" fill="none" fill-rule="evenodd">
        <g id="round-block-24px-(1)" transform="translate(-3.000000, -3.000000)">
            <polygon id="Shape" points="0 0 44 0 44 44 0 44"></polygon>
            <path d="M22,3.66666667 C11.88,3.66666667 3.66666667,11.88 3.66666667,22 C3.66666667,32.12 11.88,40.3333333 22,40.3333333 C32.12,40.3333333 40.3333333,32.12 40.3333333,22 C40.3333333,11.88 32.12,3.66666667 22,3.66666667 Z M7.33333333,22 C7.33333333,13.8966667 13.8966667,7.33333333 22,7.33333333 C25.3916667,7.33333333 28.5083333,8.48833333 30.9833333,10.4316667 L10.4316667,30.9833333 C8.48833333,28.5083333 7.33333333,25.3916667 7.33333333,22 Z M22,36.6666667 C18.6083333,36.6666667 15.4916667,35.5116667 13.0166667,33.5683333 L33.5683333,13.0166667 C35.5116667,15.4916667 36.6666667,18.6083333 36.6666667,22 C36.6666667,30.1033333 30.1033333,36.6666667 22,36.6666667 Z" id="Shape" fill="#B52D28" fill-rule="nonzero"></path>
        </g>
    </g>
</svg>