<?xml version="1.0" encoding="UTF-8" standalone="no"?>
<svg width="105px" height="102px" viewBox="0 0 105 102" version="1.1" xmlns="http://www.w3.org/2000/svg" xmlns:xlink="http://www.w3.org/1999/xlink">
    <!-- Generator: Sketch 47 (45396) - http://www.bohemiancoding.com/sketch -->
    <title>Page 1</title>
    <desc>Created with Sketch.</desc>
    <defs>
        <polygon id="path-1" points="0.552952486 44 81.785 44 81.785 0.203962222 0.552952486 0.203962222"></polygon>
    </defs>
    <g id="Design" stroke="none" stroke-width="1" fill="none" fill-rule="evenodd">
        <g id="Page-1">
            <g id="Group-3" transform="translate(23.000000, 57.225000)">
                <mask id="mask-2" fill="white">
                    <use xlink:href="#path-1"></use>
                </mask>
                <g id="Clip-2"></g>
                <path d="M14.3477,41.3931 C14.8207,35.0851 8.4087,29.5001 3.1357,30.2001 L3.1357,41.3931 L14.3477,41.3931 Z M3.1027,14.0561 C10.3387,14.3561 15.1057,7.1401 14.2767,2.8271 L3.1027,2.8271 L3.1027,14.0561 Z M67.7717,41.3461 L79.2747,41.3461 L79.2747,35.7151 L79.2747,30.1101 C73.3047,29.7161 67.6997,35.2411 67.7717,41.3461 L67.7717,41.3461 Z M79.2017,14.0551 L79.2017,2.8331 L67.7717,2.8331 C67.6557,8.9031 73.4237,14.5601 79.2017,14.0551 L79.2017,14.0551 Z M39.8067,33.1111 C38.1487,32.6101 37.0957,31.6701 36.4837,30.2521 C36.1557,29.4901 35.9167,28.6891 35.6147,27.9151 C35.2247,26.9181 34.5147,26.3291 33.4147,26.2791 C31.3137,26.1851 30.0717,27.9601 30.6427,30.2381 C31.5577,33.8851 35.0157,36.7881 39.0117,37.1901 C39.6657,37.2571 39.8497,37.4801 39.8167,38.0871 C39.7787,38.7851 39.7537,39.4921 39.8287,40.1841 C39.9117,40.9541 40.3157,41.4901 41.2017,41.4241 C42.0157,41.3641 42.3567,40.8871 42.3497,40.1031 C42.3447,39.4041 42.2827,38.6951 42.3827,38.0101 C42.4257,37.7181 42.7717,37.3331 43.0607,37.2411 C43.9447,36.9561 44.8937,36.8721 45.7697,36.5691 C49.4327,35.3051 51.7787,32.0331 51.7837,28.2721 C51.7877,24.5001 49.6267,21.5831 45.8147,20.2511 C44.8677,19.9211 43.8897,19.6771 42.9467,19.3411 C42.7107,19.2571 42.3827,18.9701 42.3797,18.7711 C42.3417,16.1941 42.3547,13.6171 42.3547,10.9611 C42.6197,11.0211 42.7917,11.0331 42.9407,11.0981 C44.4167,11.7361 45.2587,12.8731 45.7067,14.4081 C46.2337,16.2131 47.9937,16.9551 49.4827,16.0911 C50.6607,15.4091 51.0927,14.1121 50.5707,12.6271 C49.5747,9.7901 47.5967,7.9891 44.6977,7.2081 C43.9427,7.0051 42.8577,7.1041 42.4927,6.6281 C42.0977,6.1141 42.3647,5.0891 42.3507,4.2871 C42.3307,3.2031 41.9637,2.7501 41.0967,2.7581 C40.2777,2.7661 39.8307,3.2891 39.8107,4.3101 C39.7947,5.1721 39.8077,6.0351 39.8077,6.8781 C35.0847,7.4021 31.6257,9.6291 31.3187,14.5601 C31.1247,17.6711 32.0237,20.2741 35.2247,22.0351 C36.4287,22.6971 37.8037,23.0401 39.0737,23.5921 C39.3747,23.7241 39.7697,24.1061 39.7747,24.3791 C39.8267,27.2451 39.8067,30.1101 39.8067,33.1111 L39.8067,33.1111 Z M41.0677,0.2051 C53.5527,0.2051 66.0377,0.2071 78.5237,0.2041 C80.9067,0.2031 81.7847,1.0751 81.7847,3.4781 C81.7847,15.9291 81.7857,28.3811 81.7847,40.8321 C81.7847,43.0441 80.8987,43.9811 78.7117,43.9841 C65.3517,43.9971 51.9927,43.9991 38.6327,44.0001 C27.0927,44.0001 15.5517,43.9941 4.0107,43.9881 C3.6257,43.9881 3.2407,43.9851 2.8577,43.9511 C1.4167,43.8211 0.5627,42.9361 0.5617,41.4931 C0.5517,28.5521 0.5497,15.6111 0.5587,2.6701 C0.5607,1.0721 1.5807,0.2111 3.4017,0.2081 C7.4937,0.2011 11.5847,0.2051 15.6767,0.2051 L41.0677,0.2051 Z" id="Fill-1" fill="#2FBFCC" mask="url(#mask-2)"></path>
            </g>
            <path d="M82.5977,54.2304 C82.8457,52.4934 83.1817,50.9224 83.2697,49.3384 C83.4147,46.6944 83.6017,44.0264 83.4047,41.3964 C83.1507,38.0014 82.3517,34.6844 81.1317,31.4734 C79.6087,27.4654 77.5357,23.7934 74.8037,20.4974 C69.8697,14.5454 63.7337,10.3184 56.3277,8.1074 C53.6917,7.3204 50.9097,6.9484 48.1667,6.6134 C41.6107,5.8134 35.3427,7.0814 29.3427,9.7044 C23.9257,12.0724 19.3187,15.5504 15.4907,20.0864 C12.6237,23.4844 10.4557,27.2694 8.8467,31.3854 C6.7247,36.8064 6.0527,42.4724 6.5157,48.2224 C7.1067,55.5594 9.6217,62.2694 14.1007,68.1284 C15.7827,70.3284 17.8947,72.1964 19.7897,74.2354 C20.0317,74.4954 20.2837,74.8734 20.2897,75.2014 C20.3317,77.5744 20.3127,79.9474 20.3127,82.7094 C18.5597,81.3394 17.0187,80.1884 15.5367,78.9664 C12.0347,76.0784 9.2107,72.5924 6.7897,68.7774 C4.6137,65.3484 2.9927,61.6524 1.8647,57.7544 C0.9167,54.4804 0.3617,51.1464 0.1127,47.7284 C-0.4853,39.5074 1.3347,31.8184 4.9377,24.5094 C6.6047,21.1274 8.8247,18.0894 11.2907,15.2224 C14.4677,11.5314 18.2197,8.5414 22.3817,6.0904 C26.2997,3.7844 30.5337,2.1944 34.9627,1.1194 C39.3757,0.0484 43.8627,-0.1646 48.3517,0.1074 C52.9567,0.3864 57.4097,1.5014 61.7007,3.2314 C65.9957,4.9634 69.9547,7.2784 73.5297,10.2054 C78.4157,14.2084 82.2737,19.0564 85.1297,24.7064 C87.3457,29.0914 88.8087,33.7134 89.5317,38.5544 C90.1937,42.9844 90.2487,47.4324 89.4217,51.8614 C88.9777,54.2344 88.9757,54.2334 86.5797,54.2304 C85.2917,54.2294 84.0037,54.2304 82.5977,54.2304" id="Fill-4" fill="#2FBFCC"></path>
            <path d="M51.3457,54.2421 C49.6257,54.2421 48.0627,54.2561 46.5017,54.2211 C46.3497,54.2181 46.1427,53.9401 46.0677,53.7491 C45.0577,51.1911 44.0747,48.6241 43.0657,46.0651 C42.7347,45.2241 42.8567,44.4801 43.3097,43.7071 C46.0207,39.0801 48.7087,34.4391 51.3977,29.7991 C53.0207,26.9971 54.6167,24.1781 56.2537,21.3841 C56.9527,20.1911 58.2277,19.7021 59.2697,20.1401 C60.3517,20.5961 61.1637,21.8781 60.7967,22.9241 C60.4447,23.9291 59.8297,24.8461 59.2937,25.7811 C56.0327,31.4571 52.8467,37.1781 49.4457,42.7681 C48.3567,44.5591 47.8767,46.0381 48.9377,47.9891 C49.7797,49.5361 50.2767,51.2701 50.9167,52.9261 C51.0607,53.2991 51.1667,53.6881 51.3457,54.2421" id="Fill-6" fill="#2FBFCC"></path>
            <path d="M11.5117,42.6718 C11.6857,42.6718 11.8607,42.6678 12.0337,42.6718 C14.4427,42.7318 15.1117,43.5848 14.6067,45.9708 C14.4327,46.7938 13.8867,47.2488 13.0697,47.2868 C12.0277,47.3338 10.9787,47.3448 9.9357,47.2898 C8.6757,47.2238 8.0837,46.3578 8.1247,44.7778 C8.1607,43.4228 8.7997,42.7228 10.0487,42.6858 C10.5357,42.6708 11.0247,42.6828 11.5117,42.6828 L11.5117,42.6718 Z" id="Fill-8" fill="#2FBFCC"></path>
            <path d="M78.5586,42.6796 C78.8376,42.6786 79.1166,42.6736 79.3956,42.6786 C81.4556,42.7216 81.8256,43.0966 81.8096,45.1216 C81.7976,46.6766 81.2126,47.2806 79.6726,47.3016 C78.8016,47.3136 77.9256,47.3486 77.0586,47.2876 C75.7296,47.1956 75.2436,46.4266 75.2986,44.6456 C75.3406,43.2986 75.9056,42.7116 77.1986,42.6826 C77.6516,42.6726 78.1046,42.6816 78.5586,42.6796" id="Fill-10" fill="#2FBFCC"></path>
            <path d="M42.7471,11.3925 C42.7471,11.2185 42.7431,11.0445 42.7471,10.8705 C42.8191,8.4115 43.2721,7.9725 45.7661,8.2495 C46.2421,8.3025 47.0101,8.8185 47.0491,9.1845 C47.2031,10.6395 47.2631,12.1375 47.0781,13.5835 C46.9541,14.5585 45.6641,14.8915 44.0271,14.5935 C43.0681,14.4195 42.7421,13.7565 42.7581,12.8535 C42.7661,12.3665 42.7591,11.8795 42.7591,11.3925 L42.7471,11.3925 Z" id="Fill-12" fill="#2FBFCC"></path>
            <path d="M65.3501,90.4037 L65.3501,82.9867 L65.3501,81.9427 C67.7751,82.0557 69.7691,83.9707 69.7251,86.1167 C69.6821,88.2077 68.0161,90.3157 65.3501,90.4037" id="Fill-14" fill="#2FBFCC"></path>
            <path d="M62.7603,68.2299 L62.7603,75.5069 C60.4793,75.1619 59.3953,73.7729 59.3893,71.5619 C59.3843,69.8589 60.9623,68.3839 62.7603,68.2299" id="Fill-16" fill="#2FBFCC"></path>
        </g>
    </g>
</svg>