<?xml version="1.0" encoding="UTF-8" standalone="no"?>
<svg width="26px" height="31px" viewBox="0 0 26 31" version="1.1" xmlns="http://www.w3.org/2000/svg" xmlns:xlink="http://www.w3.org/1999/xlink">
    <!-- Generator: Sketch 47 (45396) - http://www.bohemiancoding.com/sketch -->
    <title>Page 1</title>
    <desc>Created with Sketch.</desc>
    <defs>
        <polygon id="path-1" points="0.0004 31 25.418 31 25.418 0.175 12.7092 0.175 0.0004 0.175"></polygon>
    </defs>
    <g id="Gestion" stroke="none" stroke-width="1" fill="none" fill-rule="evenodd">
        <g id="Large-Devices:-Desktops---12-col-Copy-36" transform="translate(-487.000000, -383.000000)">
            <g id="Page-1" transform="translate(487.000000, 382.000000)">
                <g id="Group-3" transform="translate(0.000000, 0.824700)">
                    <mask id="mask-2" fill="white">
                        <use xlink:href="#path-1"></use>
                    </mask>
                    <g id="Clip-2"></g>
                    <path d="M9.3994,8.375 L9.3994,8.373 C7.8194,8.373 6.2404,8.376 4.6614,8.371 C4.2804,8.37 3.9664,8.482 3.7744,8.826 C3.4284,9.442 3.8564,10.192 4.5704,10.201 C5.5824,10.213 6.5934,10.204 7.6054,10.204 C9.7844,10.204 11.9624,10.205 14.1404,10.204 C14.6344,10.204 14.9934,9.958 15.1114,9.546 C15.2834,8.942 14.8574,8.381 14.1994,8.378 C12.5994,8.37 10.9994,8.375 9.3994,8.375 L9.3994,8.375 Z M12.7194,20.704 C10.0654,20.704 7.4104,20.704 4.7554,20.705 C4.6524,20.705 4.5474,20.705 4.4464,20.718 C3.9014,20.79 3.5474,21.323 3.6904,21.854 C3.8064,22.292 4.1704,22.538 4.7044,22.538 C8.4444,22.538 12.1834,22.538 15.9224,22.538 C17.5354,22.538 19.1464,22.541 20.7574,22.537 C21.4104,22.535 21.8344,22.072 21.7524,21.471 C21.6854,20.995 21.2964,20.705 20.7154,20.705 C18.0504,20.704 15.3854,20.705 12.7194,20.704 L12.7194,20.704 Z M12.6844,16.626 L10.7024,16.626 C8.6794,16.626 6.6564,16.625 4.6324,16.628 C4.1414,16.628 3.7964,16.884 3.6884,17.312 C3.5304,17.931 3.9734,18.452 4.6684,18.452 C8.3224,18.454 11.9764,18.453 15.6304,18.453 C17.3444,18.453 19.0584,18.455 20.7714,18.451 C21.4124,18.449 21.8234,18.005 21.7534,17.411 C21.6984,16.937 21.3164,16.628 20.7674,16.627 C18.0734,16.625 15.3784,16.626 12.6844,16.626 L12.6844,16.626 Z M12.7534,24.822 L8.6964,24.822 C7.3344,24.822 5.9704,24.818 4.6084,24.824 C4.1144,24.826 3.7544,25.135 3.6704,25.601 C3.5944,26.011 3.8334,26.449 4.2374,26.59 C4.4084,26.649 4.6014,26.664 4.7844,26.665 C6.0234,26.671 7.2624,26.668 8.5014,26.668 C12.5274,26.667 16.5534,26.668 20.5794,26.665 C20.7734,26.664 20.9764,26.652 21.1594,26.594 C21.5944,26.455 21.8274,26.023 21.7464,25.562 C21.6694,25.123 21.2844,24.823 20.7754,24.823 C18.1014,24.821 15.4274,24.822 12.7534,24.822 L12.7534,24.822 Z M12.7244,12.489 L8.6354,12.489 C7.2944,12.489 5.9524,12.485 4.6104,12.491 C4.1134,12.494 3.7554,12.802 3.6704,13.268 C3.5944,13.678 3.8324,14.117 4.2364,14.258 C4.4074,14.317 4.5994,14.333 4.7834,14.334 C6.0014,14.34 7.2194,14.337 8.4374,14.337 C12.5044,14.336 16.5724,14.337 20.6394,14.335 C21.3424,14.334 21.7614,13.986 21.7614,13.417 C21.7604,12.827 21.3464,12.489 20.6224,12.489 C17.9894,12.488 15.3574,12.489 12.7244,12.489 L12.7244,12.489 Z M0.0014,15.61 C0.0014,11.354 0.0014,7.098 0.0004,2.842 C0.0004,1.28 1.0844,0.184 2.6454,0.183 C7.3554,0.18 12.0664,0.185 16.7764,0.175 C17.0754,0.175 17.1334,0.273 17.1314,0.546 C17.1214,2.178 17.1234,3.811 17.1284,5.442 C17.1324,7.182 18.4054,8.44 20.1514,8.441 C21.7834,8.441 23.4164,8.447 25.0474,8.436 C25.3224,8.434 25.4184,8.497 25.4184,8.792 C25.4094,14.473 25.4124,20.155 25.4124,25.836 C25.4124,26.673 25.4184,27.51 25.4114,28.346 C25.3964,29.953 24.3504,30.994 22.7374,30.995 C16.8294,30.999 10.9204,30.997 5.0104,30.997 C4.2054,30.997 3.3994,31.006 2.5934,30.995 C1.0774,30.974 0.0034,29.89 0.0034,28.377 C-0.0006,24.752 0.0014,21.126 0.0014,17.5 L0.0014,15.61 Z" id="Fill-1" fill="#00C2CC" mask="url(#mask-2)"></path>
                </g>
                <path d="M24.6709,7.4194 C23.1299,7.4194 21.5509,7.4264 19.9719,7.4154 C19.4569,7.4124 18.9779,6.9744 18.9699,6.4554 C18.9479,4.8584 18.9619,3.2604 18.9619,1.7044 C20.8589,3.6044 22.7699,5.5164 24.6709,7.4194" id="Fill-4" fill="#00C2CC"></path>
            </g>
        </g>
    </g>
</svg>