<?xml version="1.0" encoding="UTF-8" standalone="no"?>
<svg width="55px" height="37px" viewBox="0 0 55 37" version="1.1" xmlns="http://www.w3.org/2000/svg" xmlns:xlink="http://www.w3.org/1999/xlink">
    <!-- Generator: Sketch 47 (45396) - http://www.bohemiancoding.com/sketch -->
    <title>Page 1</title>
    <desc>Created with Sketch.</desc>
    <defs>
        <polygon id="path-1" points="54.5727179 35.6846359 54.5727179 0.298666667 0.000574358974 0.298666667 0.000574358974 35.6846359 54.5727179 35.6846359"></polygon>
    </defs>
    <g id="Page-1" stroke="none" stroke-width="1" fill="none" fill-rule="evenodd">
        <g transform="translate(0.000000, -1.000000)">
            <g id="Group-3" transform="translate(0.000000, 1.137949)">
                <mask id="mask-2" fill="white">
                    <use xlink:href="#path-1"></use>
                </mask>
                <g id="Clip-2"></g>
                <path d="M49.3322667,23.9433026 C49.6984205,23.5067897 50.0846769,23.2468923 50.0746256,23.0027897 C50.0631385,22.7428923 49.6941128,22.3193026 49.4514462,22.2963282 C49.2217026,22.2762256 48.7966769,22.6538667 48.7492923,22.9123282 C48.7033436,23.1506872 49.0422154,23.4637128 49.3322667,23.9433026 L49.3322667,23.9433026 Z M26.3995487,20.0362256 C26.8461128,18.9822769 27.2323692,18.0747897 27.6171897,17.1673026 C26.7183179,17.8665846 25.6370872,18.4825846 26.3995487,20.0362256 L26.3995487,20.0362256 Z M19.2157538,29.7127385 L22.5053949,29.7127385 L22.5053949,28.8957128 L19.3105231,28.8957128 C19.2688821,29.2532513 19.2358564,29.5490462 19.2157538,29.7127385 L19.2157538,29.7127385 Z M31.5572923,8.75437949 C31.2069333,9.10904615 30.6311385,9.43355897 30.5765744,9.82843077 C30.5291897,10.1902769 31.0475487,10.6267897 31.3174974,11.0302769 C31.4854974,11.028841 31.6534974,11.0274051 31.8229333,11.0259692 L31.5572923,8.75437949 Z M50.8600615,23.8226872 C50.2210872,25.9966359 50.2411897,26.1072 51.3640615,26.4589949 C51.7445744,25.6907897 52.1308308,24.9139692 52.5745231,24.020841 C51.8580103,23.937559 51.3497026,23.8786872 50.8600615,23.8226872 L50.8600615,23.8226872 Z M40.9968821,4.96791795 C35.7572923,5.2177641 30.6842667,5.92566154 27.0155487,10.3281231 C31.0403692,6.85899487 35.9310359,5.69448205 40.9968821,4.96791795 L40.9968821,4.96791795 Z M52.5357538,12.8509949 C52.4869333,12.8423795 52.4381128,12.8323282 52.3892923,12.8237128 C51.903959,16.1033026 51.4171897,19.3828923 50.9318564,22.6581744 C52.8774974,23.0085333 53.1086769,22.8233026 53.0139077,21.0514051 C52.8660103,18.3174564 52.6965744,15.5849436 52.5357538,12.8509949 L52.5357538,12.8509949 Z M25.1244718,23.0918154 C25.2723692,23.0702769 25.4202667,23.0473026 25.5667282,23.0257641 C25.191959,20.3392 24.8502154,17.6468923 24.3993436,14.9718154 C24.3404718,14.6200205 23.7259077,14.1203282 23.3497026,14.1030974 C21.4184205,14.0155077 19.4785231,14.0155077 17.547241,14.1030974 C17.1681641,14.1217641 16.5378051,14.6286359 16.4932923,14.9689436 C16.2937026,16.545559 16.2491897,18.140841 16.1702154,19.7303795 C16.1357538,20.4066872 16.5263179,20.6292513 17.1667282,20.6766359 C19.0176,20.8159179 20.8627282,21.0068923 22.8299077,21.1878154 C22.307241,20.6809436 21.6768821,20.1453538 21.1527795,19.5236103 C20.9014974,19.2235077 20.6861128,18.7180718 20.7636513,18.3763282 C20.8253949,18.1035077 21.4543179,17.692841 21.6567795,17.7746872 C22.0301128,17.9268923 22.3833436,18.3490462 22.5527795,18.7396103 C22.8973949,19.5394051 23.1127795,20.3937641 23.3812923,21.2251487 C23.5464205,21.1634051 23.7129846,21.1030974 23.8781128,21.0427897 C23.6885744,20.548841 23.4631385,20.0649436 23.3209846,19.5595077 C23.2290872,19.2292513 23.1056,18.6879179 23.2621128,18.5558154 C23.5464205,18.3131487 24.0303179,18.3059692 24.4309333,18.1997128 C24.5228308,18.6333538 24.7970872,19.1287385 24.6736,19.4862769 C24.2715487,20.6407385 24.435241,22.508841 25.1244718,23.0918154 L25.1244718,23.0918154 Z M0.000574358974,19.2680205 C0.597907692,18.3476103 1.44795897,18.0891487 2.52631795,18.1106872 C5.36508718,18.1681231 8.20529231,18.1307897 11.1675487,18.1307897 C11.2666256,15.2460718 11.3642667,12.4633026 11.4576,9.68196923 C11.4690872,9.30145641 11.4647795,8.92237949 11.4590359,8.54186667 C11.4489846,7.96607179 11.639959,7.48504615 12.2918564,7.67602051 C12.591959,7.76361026 12.9710359,8.22309744 12.9868308,8.52894359 C13.0586256,10.0064821 12.9710359,11.4926359 13.0327795,12.9716103 C13.1031385,14.6616615 13.2711385,16.3459692 13.4003692,18.0790974 L14.5577026,18.0790974 C14.8520615,16.7537641 15.2024205,15.4068923 15.4407795,14.0399179 C15.6030359,13.1037128 16.0582154,12.7892513 16.987241,12.8150974 C18.9989333,12.8682256 21.0163692,12.7605333 23.0251897,12.8596103 C24.1193436,12.9127385 24.6850872,12.5839179 25.1977026,11.5802256 C27.1189333,7.81961026 30.0323692,5.29099487 34.3788308,4.74535385 C37.0524718,4.41078974 39.7289846,4.10494359 42.4011897,3.76607179 C44.0955487,3.55212308 45.7913436,3.33530256 47.4727795,3.03950769 C47.8475487,2.97345641 48.1849846,2.60012308 48.5037538,2.32730256 C49.2087795,1.72422564 49.7931897,0.881353846 50.5987282,0.519507692 C52.3218051,-0.255876923 53.9458051,1.10678974 53.8582154,2.99355897 C53.7806769,4.6592 53.8496,6.33345641 53.8653949,8.00484103 C53.9070359,12.2148923 53.9300103,16.4263795 54.0276513,20.6364308 C54.0434462,21.3285333 54.4971897,22.004841 54.5646769,22.705559 C54.6091897,23.1851487 54.4727795,24.0064821 54.1784205,24.1371487 C52.8602667,24.7186872 52.7985231,26.0382769 52.2586256,27.0592 C52.015959,27.5143795 51.9829333,28.081559 51.8005744,28.8239179 C51.9183179,28.9359179 52.1868308,29.2417641 52.5084718,29.4729436 C53.6155487,30.2598154 54.3507282,31.2635077 53.9730872,32.6577641 C53.583959,34.1022769 52.5041641,34.9939692 51.0596513,35.2194051 C49.7931897,35.4161231 48.487959,35.4304821 47.2028308,35.3974564 C45.1365744,35.3443282 43.0731897,35.1849436 41.1131897,35.0743795 C42.5002667,34.1726359 43.7681641,32.9679179 45.2729846,32.4610462 C47.2258051,31.8034051 47.5273436,30.1018667 48.3745231,28.7234051 C48.5195487,28.4864821 48.3616,28.0327385 48.2826256,27.6938667 C48.0787282,26.8308923 47.6565744,25.9779692 47.647959,25.1178667 C47.5977026,19.6485333 47.6350359,14.1792 47.6436513,8.70986667 C47.6436513,8.33222564 47.6436513,7.95602051 47.6436513,7.43335385 C46.7620103,7.66740513 45.9636513,7.84258462 45.1882667,8.08955897 C41.4003692,9.30289231 37.6110359,10.5147897 33.8360615,11.7654564 C31.7985231,12.4403282 30.3339077,13.6378667 29.6016,15.8261744 C28.7860103,18.2643282 27.5942154,20.5746872 26.6278564,22.9654564 C26.4110359,23.5024821 26.3564718,24.1529436 26.3981128,24.7373538 C26.4727795,25.7697641 26.1324718,26.2493538 25.0598564,26.0827897 C24.9191385,26.0612513 24.7669333,26.1158154 24.6132923,26.1359179 C24.2658051,26.9673026 24.5831385,27.3650462 25.3972923,27.4713026 C27.5769846,27.7556103 29.7523692,28.0643282 31.9334974,28.3227897 C33.9581128,28.5640205 35.271959,29.6337641 35.5605744,31.3510974 C35.8621128,33.1430974 34.9819077,34.6220718 33.1023179,35.4922256 C33.003241,35.5381744 32.9228308,35.6200205 32.8338051,35.6846359 L3.19257436,35.6846359 C3.10354872,35.6185846 3.02313846,35.5353026 2.92549744,35.4907897 C1.07606154,34.6364308 0.233189744,33.2680205 0.460061538,31.4760205 C0.666830769,29.8347897 1.88734359,28.6645333 3.85595897,28.3414564 C5.90785641,28.0083282 7.97267692,27.7426872 10.0346256,27.4669949 C10.8301128,27.3607385 11.2034462,27.0218667 10.8387282,26.0713026 L9.6641641,26.0713026 C6.93595897,26.0727385 4.20918974,26.0957128 1.48242051,26.0555077 C0.987035897,26.0483282 0.494523077,25.7941744 0.000574358974,25.6520205 L0.000574358974,19.2680205 Z" id="Fill-1" fill="#00C6D2" mask="url(#mask-2)"></path>
            </g>
            <path d="M16.7876513,33.5382564 C16.8034462,33.3702564 16.819241,33.2022564 16.8350359,33.0328205 C16.3798564,32.6307692 15.9835487,32.0219487 15.4580103,31.8740513 C14.6510359,31.6471795 14.0623179,32.2215385 13.9732923,33.0299487 C13.8813949,33.8699487 14.4342154,34.4902564 15.2253949,34.4385641 C15.7638564,34.4041026 16.2678564,33.8570256 16.7876513,33.5382564" id="Fill-4" fill="#00C6D2"></path>
            <path d="M22.3622359,33.3867692 C21.8783385,33.7514872 21.4403897,34.2827692 20.8961846,34.4421538 C20.191159,34.6489231 19.5292103,33.9008205 19.5622359,33.1139487 C19.5952615,32.2954872 20.0863385,31.7412308 20.8516718,31.8661538 C21.3915692,31.9551795 21.8553641,32.5008205 22.3536205,32.8425641 L22.3622359,33.3867692 Z" id="Fill-6" fill="#00C6D2"></path>
            <path d="M35.7705026,33.7598154 C35.7705026,35.5690462 34.6102974,37.0350974 33.1787077,37.0350974 L2.89850256,37.0350974 C1.46834872,37.0350974 0.30814359,35.5690462 0.30814359,33.7598154 C0.30814359,31.9520205 1.46834872,30.4845333 2.89850256,30.4845333 L33.1787077,30.4845333 C34.6102974,30.4845333 35.7705026,31.9520205 35.7705026,33.7598154" id="Fill-8" fill="#00C6D2"></path>
            <path d="M5.66921026,33.4806769 C5.66921026,34.319241 4.98859487,35.0012923 4.14859487,35.0012923 C3.31003077,35.0012923 2.62941538,34.319241 2.62941538,33.4806769 C2.62941538,32.6421128 3.31003077,31.9600615 4.14859487,31.9600615 C4.98859487,31.9600615 5.66921026,32.6421128 5.66921026,33.4806769" id="Fill-10" fill="#00C6D2"></path>
            <path d="M4.14916923,32.2838564 C3.49009231,32.2838564 2.95306667,32.8208821 2.95306667,33.479959 C2.95306667,34.1404718 3.49009231,34.6774974 4.14916923,34.6774974 C4.80824615,34.6774974 5.34527179,34.1404718 5.34527179,33.479959 C5.34527179,32.8208821 4.80824615,32.2838564 4.14916923,32.2838564 M4.14916923,35.3236513 C3.13255385,35.3236513 2.30547692,34.4980103 2.30547692,33.479959 C2.30547692,32.4633436 3.13255385,31.6377026 4.14916923,31.6377026 C5.16578462,31.6377026 5.99286154,32.4633436 5.99286154,33.479959 C5.99286154,34.4980103 5.16578462,35.3236513 4.14916923,35.3236513" id="Fill-12" fill="#FFFFFF"></path>
            <path d="M11.3701538,33.4806769 C11.3701538,34.319241 10.6895385,35.0012923 9.84953846,35.0012923 C9.01097436,35.0012923 8.33035897,34.319241 8.33035897,33.4806769 C8.33035897,32.6421128 9.01097436,31.9600615 9.84953846,31.9600615 C10.6895385,31.9600615 11.3701538,32.6421128 11.3701538,33.4806769" id="Fill-14" fill="#00C6D2"></path>
            <path d="M9.85011282,32.2838564 C9.1910359,32.2838564 8.65401026,32.8208821 8.65401026,33.479959 C8.65401026,34.1404718 9.1910359,34.6774974 9.85011282,34.6774974 C10.5091897,34.6774974 11.0462154,34.1404718 11.0462154,33.479959 C11.0462154,32.8208821 10.5091897,32.2838564 9.85011282,32.2838564 M9.85011282,35.3236513 C8.83349744,35.3236513 8.00642051,34.4980103 8.00642051,33.479959 C8.00642051,32.4633436 8.83349744,31.6377026 9.85011282,31.6377026 C10.8667282,31.6377026 11.6938051,32.4633436 11.6938051,33.479959 C11.6938051,34.4980103 10.8667282,35.3236513 9.85011282,35.3236513" id="Fill-16" fill="#FFFFFF"></path>
            <path d="M16.8437949,33.4806769 C16.8437949,34.319241 16.1631795,35.0012923 15.3231795,35.0012923 C14.4846154,35.0012923 13.804,34.319241 13.804,33.4806769 C13.804,32.6421128 14.4846154,31.9600615 15.3231795,31.9600615 C16.1631795,31.9600615 16.8437949,32.6421128 16.8437949,33.4806769" id="Fill-18" fill="#00C6D2"></path>
            <path d="M15.3237538,32.2838564 C14.6646769,32.2838564 14.1276513,32.8208821 14.1276513,33.479959 C14.1276513,34.1404718 14.6646769,34.6774974 15.3237538,34.6774974 C15.9828308,34.6774974 16.5198564,34.1404718 16.5198564,33.479959 C16.5198564,32.8208821 15.9828308,32.2838564 15.3237538,32.2838564 M15.3237538,35.3236513 C14.3071385,35.3236513 13.4800615,34.4980103 13.4800615,33.479959 C13.4800615,32.4633436 14.3071385,31.6377026 15.3237538,31.6377026 C16.3403692,31.6377026 17.1674462,32.4633436 17.1674462,33.479959 C17.1674462,34.4980103 16.3403692,35.3236513 15.3237538,35.3236513" id="Fill-20" fill="#FFFFFF"></path>
            <path d="M22.4687795,33.4806769 C22.4687795,34.319241 21.7881641,35.0012923 20.9481641,35.0012923 C20.1096,35.0012923 19.4289846,34.319241 19.4289846,33.4806769 C19.4289846,32.6421128 20.1096,31.9600615 20.9481641,31.9600615 C21.7881641,31.9600615 22.4687795,32.6421128 22.4687795,33.4806769" id="Fill-22" fill="#00C6D2"></path>
            <path d="M20.9488821,32.2838564 C20.2898051,32.2838564 19.7527795,32.8208821 19.7527795,33.479959 C19.7527795,34.1404718 20.2898051,34.6774974 20.9488821,34.6774974 C21.607959,34.6774974 22.1449846,34.1404718 22.1449846,33.479959 C22.1449846,32.8208821 21.607959,32.2838564 20.9488821,32.2838564 M20.9488821,35.3236513 C19.9322667,35.3236513 19.1051897,34.4980103 19.1051897,33.479959 C19.1051897,32.4633436 19.9322667,31.6377026 20.9488821,31.6377026 C21.9654974,31.6377026 22.7925744,32.4633436 22.7925744,33.479959 C22.7925744,34.4980103 21.9654974,35.3236513 20.9488821,35.3236513" id="Fill-24" fill="#FFFFFF"></path>
            <path d="M28.0175179,33.4806769 C28.0175179,34.319241 27.3369026,35.0012923 26.4969026,35.0012923 C25.6583385,35.0012923 24.9777231,34.319241 24.9777231,33.4806769 C24.9777231,32.6421128 25.6583385,31.9600615 26.4969026,31.9600615 C27.3369026,31.9600615 28.0175179,32.6421128 28.0175179,33.4806769" id="Fill-26" fill="#00C6D2"></path>
            <path d="M26.4974769,32.2838564 C25.8384,32.2838564 25.3013744,32.8208821 25.3013744,33.479959 C25.3013744,34.1404718 25.8384,34.6774974 26.4974769,34.6774974 C27.1565538,34.6774974 27.6935795,34.1404718 27.6935795,33.479959 C27.6935795,32.8208821 27.1565538,32.2838564 26.4974769,32.2838564 M26.4974769,35.3236513 C25.4808615,35.3236513 24.6537846,34.4980103 24.6537846,33.479959 C24.6537846,32.4633436 25.4808615,31.6377026 26.4974769,31.6377026 C27.5140923,31.6377026 28.3411692,32.4633436 28.3411692,33.479959 C28.3411692,34.4980103 27.5140923,35.3236513 26.4974769,35.3236513" id="Fill-28" fill="#FFFFFF"></path>
            <path d="M33.7183179,33.4806769 C33.7183179,34.319241 33.0377026,35.0012923 32.1977026,35.0012923 C31.3591385,35.0012923 30.6785231,34.319241 30.6785231,33.4806769 C30.6785231,32.6421128 31.3591385,31.9600615 32.1977026,31.9600615 C33.0377026,31.9600615 33.7183179,32.6421128 33.7183179,33.4806769" id="Fill-30" fill="#00C6D2"></path>
            <path d="M32.1982769,32.2838564 C31.5392,32.2838564 31.0021744,32.8208821 31.0021744,33.479959 C31.0021744,34.1404718 31.5392,34.6774974 32.1982769,34.6774974 C32.8573538,34.6774974 33.3943795,34.1404718 33.3943795,33.479959 C33.3943795,32.8208821 32.8573538,32.2838564 32.1982769,32.2838564 M32.1982769,35.3236513 C31.1816615,35.3236513 30.3545846,34.4980103 30.3545846,33.479959 C30.3545846,32.4633436 31.1816615,31.6377026 32.1982769,31.6377026 C33.2148923,31.6377026 34.0419692,32.4633436 34.0419692,33.479959 C34.0419692,34.4980103 33.2148923,35.3236513 32.1982769,35.3236513" id="Fill-32" fill="#FFFFFF"></path>
        </g>
    </g>
</svg>