<?xml version="1.0" encoding="UTF-8" standalone="no"?>
<svg width="21px" height="19px" viewBox="0 0 21 19" version="1.1" xmlns="http://www.w3.org/2000/svg" xmlns:xlink="http://www.w3.org/1999/xlink">
    <!-- Generator: Sketch 47 (45396) - http://www.bohemiancoding.com/sketch -->
    <title>baseline-how_to_reg-24px</title>
    <desc>Created with Sketch.</desc>
    <defs></defs>
    <g id="Gestion" stroke="none" stroke-width="1" fill="none" fill-rule="evenodd">
        <g id="Large-Devices:-Desktops---12-col-Copy-36" transform="translate(-1147.000000, -175.000000)" fill-rule="nonzero" fill="#FFFFFF">
            <g id="baseline-how_to_reg-24px" transform="translate(1147.000000, 175.000000)">
                <g id="Group" transform="translate(0.250000, 0.333333)">
                    <path d="M6.5,14.0833333 L9.75,10.8983333 C9.3275,10.855 9.01333333,10.8333333 8.66666667,10.8333333 C5.77416667,10.8333333 0,12.285 0,15.1666667 L0,17.3333333 L9.75,17.3333333 L6.5,14.0833333 Z M8.66666667,8.66666667 C11.0608333,8.66666667 13,6.7275 13,4.33333333 C13,1.93916667 11.0608333,0 8.66666667,0 C6.2725,0 4.33333333,1.93916667 4.33333333,4.33333333 C4.33333333,6.7275 6.2725,8.66666667 8.66666667,8.66666667 L8.66666667,8.66666667 Z" id="Shape"></path>
                    <polygon id="Shape" points="13.5091667 17.875 9.75 14.0833333 11.2666667 12.5558333 13.5091667 14.8091667 19.0666667 9.20833333 20.5833333 10.7358333"></polygon>
                </g>
            </g>
        </g>
    </g>
</svg>