<?xml version="1.0" encoding="UTF-8" standalone="no"?>
<svg width="17px" height="15px" viewBox="0 0 17 15" version="1.1" xmlns="http://www.w3.org/2000/svg" xmlns:xlink="http://www.w3.org/1999/xlink">
    <!-- Generator: Sketch 47 (45396) - http://www.bohemiancoding.com/sketch -->
    <title>baseline-how_to_reg-24px copy</title>
    <desc>Created with Sketch.</desc>
    <defs></defs>
    <g id="Gestion" stroke="none" stroke-width="1" fill="none" fill-rule="evenodd">
        <g id="Large-Devices:-Desktops---12-col-Copy-36" transform="translate(-1210.000000, -209.000000)" fill-rule="nonzero" fill="#FFFFFF">
            <g id="baseline-how_to_reg-24px-copy" transform="translate(1210.000000, 209.000000)">
                <g id="Group" transform="translate(0.204545, 0.272727)">
                    <path d="M5.31818182,11.5227273 L7.97727273,8.91681818 C7.63159091,8.88136364 7.37454545,8.86363636 7.09090909,8.86363636 C4.72431818,8.86363636 0,10.0513636 0,12.4090909 L0,14.1818182 L7.97727273,14.1818182 L5.31818182,11.5227273 Z M7.09090909,7.09090909 C9.04977273,7.09090909 10.6363636,5.50431818 10.6363636,3.54545455 C10.6363636,1.58659091 9.04977273,0 7.09090909,0 C5.13204545,0 3.54545455,1.58659091 3.54545455,3.54545455 C3.54545455,5.50431818 5.13204545,7.09090909 7.09090909,7.09090909 L7.09090909,7.09090909 Z" id="Shape"></path>
                    <polygon id="Shape" points="11.0529545 14.625 7.97727273 11.5227273 9.21818182 10.2729545 11.0529545 12.1165909 15.6 7.53409091 16.8409091 8.78386364"></polygon>
                </g>
            </g>
        </g>
    </g>
</svg>