<?xml version="1.0" encoding="UTF-8" standalone="no"?>
<svg width="41px" height="41px" viewBox="0 0 41 41" version="1.1" xmlns="http://www.w3.org/2000/svg" xmlns:xlink="http://www.w3.org/1999/xlink">
    <!-- Generator: Sketch 48.2 (47327) - http://www.bohemiancoding.com/sketch -->
    <title>Page 1</title>
    <desc>Created with Sketch.</desc>
    <defs>
        <polygon id="path-1" points="0 0.000211340206 40.8004948 0.000211340206 40.8004948 40.8002835 0 40.8002835"></polygon>
    </defs>
    <g id="Design" stroke="none" stroke-width="1" fill="none" fill-rule="evenodd">
        <g id="Page-1">
            <mask id="mask-2" fill="white">
                <use xlink:href="#path-1"></use>
            </mask>
            <g id="Clip-2"></g>
            <path d="M20.400501,36.7205722 C11.3834598,36.7205722 4.08038763,29.4170773 4.08038763,20.4000361 C4.08038763,11.3834175 11.3834598,4.07992268 20.400501,4.07992268 C29.4171196,4.07992268 36.7201918,11.3834175 36.7201918,20.4000361 C36.7201918,29.4170773 29.4171196,36.7205722 20.400501,36.7205722 Z M20.3802124,0.000211340206 C9.12042887,0.000211340206 -0.000169072165,9.14025258 -0.000169072165,20.4000361 C-0.000169072165,31.6598196 9.12042887,40.8002835 20.3802124,40.8002835 C31.6602845,40.8002835 40.8007485,31.6598196 40.8007485,20.4000361 C40.8007485,9.14025258 31.6602845,0.000211340206 20.3802124,0.000211340206 Z M18.3602227,22.4398918 L22.4403567,22.4398918 L22.4403567,10.1999124 L18.3602227,10.1999124 L18.3602227,22.4398918 Z M18.3602227,30.5997371 L22.4403567,30.5997371 L22.4403567,26.5204485 L18.3602227,26.5204485 L18.3602227,30.5997371 Z" id="Fill-1" fill="#417FB0" mask="url(#mask-2)"></path>
        </g>
    </g>
</svg>