<svg xmlns="http://www.w3.org/2000/svg" xmlns:xlink="http://www.w3.org/1999/xlink" width="116" height="49" viewBox="0 0 116 49">
    <defs>
        <path id="a" d="M0 0h128v55H0z"/>
    </defs>
    <g fill="none" fill-rule="evenodd" transform="translate(-5 -4)">
        <mask id="b" fill="#fff">
            <use xlink:href="#a"/>
        </mask>
        <g mask="url(#b)">
            <path fill="#000" fill-rule="nonzero" d="M19.211 5.822h13.428L19.142 51.818H5.715zM35.117 5.822h13.358l1.515 25.752h.275c.551-1.996 9.64-25.752 9.64-25.752h13.978l-1.722 45.996H59.423l2.41-25.27h-.207c-.481 1.515-10.672 25.27-10.672 25.27h-8.056s-2.065-23.342-1.791-25.27h-.413c-.413 1.859-6.266 25.27-6.266 25.27H21.414L35.117 5.822z"/>
            <path fill="#000" fill-rule="nonzero" d="M100.531 35.155l3.994-14.047h1.377c0 1.928-.069 3.994 0 5.922l.344 8.125h-5.715zM96.95 46.103h9.984l.345 5.715h13.565l-5.853-45.996H87.104L68.926 51.818h26.372l1.652-5.715z"/>
            <path fill="#000" fill-rule="nonzero" d="M94.816 24.413c-1.791-2.41-4.201-4.476-7.23-4.476-3.993 0-7.85 3.856-8.607 8.745-.688 4.958 2.204 8.744 6.266 8.675 3.098 0 5.784-1.583 8.332-4.131l-2.823 16.732c-2.341 1.239-7.437 1.79-9.847 1.79-10.535 0-17.352-9.846-15.493-22.654C67.273 16.08 77.326 5.614 88.137 5.545c3.03 0 6.128.62 8.745 1.791l-2.066 17.077z"/>
            <path stroke="#000" stroke-width="1.715" d="M94.816 24.413c-1.791-2.41-4.201-4.476-7.23-4.476-3.993 0-7.85 3.856-8.607 8.745-.688 4.958 2.204 8.744 6.266 8.675 3.098 0 5.784-1.583 8.332-4.131l-2.823 16.732c-2.341 1.239-7.437 1.79-9.847 1.79-10.535 0-17.352-9.846-15.493-22.654C67.273 16.08 77.326 5.614 88.137 5.545c3.03 0 6.128.62 8.745 1.791l-2.066 17.077z"/>
            <path fill="#FFC820" fill-rule="nonzero" d="M94.816 24.413c-1.791-2.41-4.201-4.476-7.23-4.476-3.993 0-7.85 3.856-8.607 8.745-.688 4.958 2.204 8.744 6.266 8.675 3.098 0 5.784-1.583 8.332-4.131l-2.823 16.732c-2.341 1.239-7.437 1.79-9.847 1.79-10.535 0-17.352-9.846-15.493-22.654C67.273 16.08 77.326 5.614 88.137 5.545c3.03 0 6.128.62 8.745 1.791l-2.066 17.077z"/>
            <path d="M-.5-36.5h128v128H-.5z"/>
        </g>
    </g>
</svg>
