<?xml version="1.0" encoding="UTF-8" standalone="no"?>
<svg width="23px" height="24px" viewBox="0 0 23 24" version="1.1" xmlns="http://www.w3.org/2000/svg" xmlns:xlink="http://www.w3.org/1999/xlink">
    <!-- Generator: Sketch 47 (45396) - http://www.bohemiancoding.com/sketch -->
    <title>Page 1</title>
    <desc>Created with Sketch.</desc>
    <defs>
        <polygon id="path-1" points="0.0436804908 0.0394568966 19.3843771 0.0394568966 19.3843771 22.9999971 0.0436804908 22.9999971"></polygon>
        <polygon id="path-3" points="0 23.158819 22.9534052 23.158819 22.9534052 0.198275862 0 0.198275862"></polygon>
    </defs>
    <g id="Gestion" stroke="none" stroke-width="1" fill="none" fill-rule="evenodd">
        <g id="Large-Devices:-Desktops---12-col-Copy-36" transform="translate(-875.000000, -271.000000)">
            <g id="Page-1" transform="translate(875.000000, 271.000000)">
                <g id="Group-3" transform="translate(3.568966, 0.158819)">
                    <mask id="mask-2" fill="white">
                        <use xlink:href="#path-1"></use>
                    </mask>
                    <g id="Clip-2"></g>
                    <path d="M9.703125,22.9885793 C7.06645259,22.9885793 4.42978017,22.9697431 1.79350431,22.9984931 C0.826909483,23.0090017 -0.150590517,22.2038034 0.0770301724,20.8751569 C0.117280172,20.6400017 0.339547414,20.4603638 0.586599138,20.4419241 C0.871323276,20.4209069 1.11936638,20.5545448 1.18915948,20.8117086 C1.23773707,20.99095 1.23496121,21.1860534 1.24051293,21.3742172 C1.25181466,21.7491569 1.29880603,21.8032862 1.67711638,21.8034845 C4.00784914,21.8044759 6.3385819,21.8040793 8.66951293,21.8040793 C11.620056,21.8040793 14.5707974,21.8042776 17.5215388,21.803881 C17.6535905,21.803881 17.7858405,21.8015017 17.9180905,21.7967431 C18.0862284,21.7905966 18.1758491,21.7015707 18.1831853,21.5328379 C18.1873491,21.4338983 18.1903233,21.3345621 18.1903233,21.2354241 C18.1903233,16.0120448 18.187944,10.7886655 18.193694,5.56508793 C18.1940905,5.24388103 18.094556,4.99920862 17.8669353,4.77416552 C16.7793922,3.69931207 15.6991853,2.61712241 14.6227457,1.53116552 C14.4103922,1.31702759 14.1752371,1.22363966 13.8728664,1.22403621 C9.83121121,1.22978621 5.78955603,1.22800172 1.74790086,1.2289931 C1.26728017,1.22919138 1.24368534,1.25357931 1.24309052,1.7349931 C1.24170259,2.60284655 1.2456681,2.08276897 1.24031466,2.95042414 C1.23753879,3.41577759 0.886392241,3.6999069 0.479926724,3.57876034 C0.232875,3.5052 0.0694956897,3.31584655 0.0679094828,3.05372586 C0.0625560345,2.07047586 0.0506594828,2.47456207 0.0730646552,1.49151034 C0.0893232759,0.776131034 0.820961207,0.0752258621 1.56727155,0.053812069 C2.38476293,0.0302172414 3.20344397,0.0442948276 4.02172845,0.0440965517 C7.25342672,0.0435017241 10.4849267,0.0498465517 13.7164267,0.039337931 C14.4450905,0.0369586207 15.0442802,0.268743103 15.5568233,0.792587931 C16.6033233,1.86169138 17.6700474,2.91076897 18.7274526,3.96876897 C19.1573147,4.39882931 19.3732371,4.91910517 19.3732371,5.52721724 C19.3740302,10.1391138 19.3742284,14.7510103 19.374625,19.3629069 C19.374625,19.9910448 19.3448836,20.6209672 19.3817629,21.2469241 C19.4380733,22.1952776 18.5759698,23.0111828 17.6375302,22.999881 C14.9929267,22.9675621 12.3479267,22.9885793 9.703125,22.9885793" id="Fill-1" fill="#FFFFFF" mask="url(#mask-2)"></path>
                </g>
                <mask id="mask-4" fill="white">
                    <use xlink:href="#path-3"></use>
                </mask>
                <g id="Clip-5"></g>
                <path d="M1.33538793,18.38275 L13.4197069,18.38275 L13.4197069,6.28871552 L1.33538793,6.28871552 L1.33538793,18.38275 Z M7.38022414,19.7119914 C5.19324138,19.7119914 3.0064569,19.7125862 0.819474138,19.7117931 C0.202241379,19.7113966 0.00138793103,19.511931 0.00118965517,18.8798276 C-0.000594827586,14.4971379 -4.06575815e-20,10.11425 0.0015862069,5.73136207 C0.00178448276,5.18531034 0.239715517,4.95550862 0.803215517,4.95531034 C4.43265517,4.95372414 8.0622931,4.95412069 11.6915345,4.95392241 C12.445181,4.95392241 13.198431,4.95055172 13.9518793,4.95550862 C14.5478966,4.95927586 14.7798793,5.26481897 14.7646121,5.8642069 C14.7358621,6.96602586 14.7521207,8.06923276 14.7519224,9.17164655 C14.7511293,12.4152414 14.7519224,15.6586379 14.750931,18.9022328 C14.7507328,19.5089569 14.5465086,19.7115948 13.9407759,19.7117931 C11.7539914,19.7123879 9.56700862,19.7119914 7.38022414,19.7119914 L7.38022414,19.7119914 Z" id="Fill-4" fill="#FFFFFF" mask="url(#mask-4)"></path>
                <path d="M19.4817733,6.21388621 C19.1677043,6.21388621 18.8536353,6.21448103 18.5397647,6.21368793 C17.6707216,6.21130862 16.9323422,5.47114483 16.9311526,4.60111034 C16.9301612,3.9648431 16.9301612,3.32857586 16.9311526,2.69211034 C16.9319457,2.28088621 17.1667043,2.01142931 17.5200319,2.01242069 C17.8701871,2.01321379 18.1077216,2.28762759 18.1085147,2.69567931 C18.109506,3.34027414 18.1077216,3.98486897 18.109506,4.62926552 C18.1102991,4.95761034 18.1882216,5.03454138 18.5215233,5.03553276 C19.1661181,5.03731724 19.8105147,5.03553276 20.4551095,5.03652414 C20.859394,5.03692069 21.1347991,5.27980862 21.1328164,5.6307569 C21.1306353,5.97694655 20.8691095,6.20892931 20.4733509,6.21368793 C20.3081871,6.21547241 20.142825,6.21388621 19.9774629,6.21388621 L19.4817733,6.21388621 Z" id="Fill-6" fill="#FFFFFF" mask="url(#mask-4)"></path>
                <path d="M7.39951638,7.64333621 C8.68612845,7.64353448 9.97293879,7.64234483 11.2597491,7.64432759 C11.8337578,7.64512069 12.0929043,7.92052586 12.0814043,8.49988793 C12.0746629,8.84885345 12.0794216,9.19841379 12.0722836,9.54757759 C12.0637578,9.99171552 11.8069905,10.2718793 11.4157922,10.2726724 C11.0146802,10.2736638 10.7717922,10.0067845 10.7608871,9.55352586 C10.7466112,8.95433621 10.7466112,8.95433621 10.1593181,8.95433621 C9.53435259,8.95453448 8.90918879,8.96068103 8.28442155,8.95096552 C8.09229224,8.94799138 8.02904224,9.01163793 8.02943879,9.20277586 C8.03419741,11.2981552 8.03320603,13.3935345 8.03062845,15.4889138 C8.03043017,15.6374224 8.06929224,15.7117759 8.22890431,15.7587672 C8.54515431,15.8519569 8.70278362,16.1325172 8.66808534,16.465819 C8.63854224,16.7513362 8.41766293,16.9983879 8.10557672,17.0146466 C7.62019741,17.0400259 7.13204224,17.0416121 6.64666293,17.0184138 C6.30860259,17.0021552 6.08613707,16.7555 6.04786983,16.4354828 C6.01257672,16.1400517 6.20609397,15.8388707 6.52690431,15.7524224 C6.69305948,15.7076121 6.71705086,15.6237414 6.71705086,15.479 C6.714275,13.3927414 6.71288707,11.306681 6.71903362,9.22022414 C6.71962845,9.01798276 6.66391293,8.94858621 6.45453362,8.95175862 C5.72864569,8.96325862 5.00236121,8.96306034 4.27647328,8.9519569 C4.057775,8.94858621 3.97449914,9.02313793 3.99194741,9.23846552 C4.00324914,9.37547414 3.99650776,9.51426724 3.98857672,9.65167241 C3.96835259,9.99667241 3.72962845,10.2470948 3.40485259,10.2710862 C3.05291293,10.2970603 2.73844741,10.0993793 2.71128362,9.74803448 C2.67103362,9.22855172 2.66905086,8.70153448 2.70969741,8.18205172 C2.73765431,7.82317241 3.03764569,7.64353448 3.45680086,7.64333621 C4.77097328,7.6425431 6.08514569,7.64313793 7.39951638,7.64333621" id="Fill-7" fill="#FFFFFF" mask="url(#mask-4)"></path>
            </g>
        </g>
    </g>
</svg>