<?xml version="1.0" encoding="UTF-8" standalone="no"?>
<svg width="50px" height="62px" viewBox="0 0 50 62" version="1.1" xmlns="http://www.w3.org/2000/svg" xmlns:xlink="http://www.w3.org/1999/xlink">
    <!-- Generator: Sketch 47 (45396) - http://www.bohemiancoding.com/sketch -->
    <title>Page 1</title>
    <desc>Created with Sketch.</desc>
    <defs></defs>
    <g id="Boilerplate" stroke="none" stroke-width="1" fill="none" fill-rule="evenodd">
        <g id="Large-Devices:-Desktops---12-col-Copy-7" transform="translate(-1158.000000, -586.000000)" fill="#ADADAD">
            <g id="Page-1" transform="translate(1158.000000, 586.000000)">
                <path d="M5,2 C3.35,2 2,3.35 2,5 L2,57 C2,58.65 3.35,60 5,60 L45,60 C46.65,60 48,58.65 48,57 L48,24.65 C48,23.85 47.7,23.1 47.1,22.55 L27.45,2.9 C26.9,2.3 26.15,2 25.35,2 L5,2 Z M45,62 L5,62 C2.25,62 0,59.75 0,57 L0,5 C0,2.25 2.25,0 5,0 L25.35,0 C26.7,0 27.95,0.5 28.9,1.45 L48.55,21.1 C49.5,22.05 50,23.3 50,24.65 L50,57 C50,59.75 47.75,62 45,62 L45,62 Z" id="Fill-1"></path>
                <path d="M30.3447,46.3623 C29.1587,46.7663 26.9147,47.3213 24.6697,47.3213 C21.5677,47.3213 19.3227,46.5393 17.7587,45.0253 C16.1957,43.5623 15.3377,41.3433 15.3627,38.8463 C15.3877,33.1963 19.4997,29.9673 25.0737,29.9673 C27.2677,29.9673 28.9577,30.3963 29.7897,30.8003 L28.9837,33.8773 C28.0497,33.4733 26.8897,33.1453 25.0227,33.1453 C21.8197,33.1453 19.3987,34.9623 19.3987,38.6443 C19.3987,42.1503 21.5927,44.2183 24.7457,44.2183 C25.6287,44.2183 26.3347,44.1183 26.6377,43.9663 L26.6377,40.4103 L24.0137,40.4103 L24.0137,37.4083 L30.3447,37.4083 L30.3447,46.3623 Z" id="Fill-3"></path>
            </g>
        </g>
    </g>
</svg>