<?xml version="1.0" encoding="UTF-8" standalone="no"?>
<svg width="50px" height="62px" viewBox="0 0 50 62" version="1.1" xmlns="http://www.w3.org/2000/svg" xmlns:xlink="http://www.w3.org/1999/xlink">
    <!-- Generator: Sketch 47 (45396) - http://www.bohemiancoding.com/sketch -->
    <title>iconfinder_file_7_1377263</title>
    <desc>Created with Sketch.</desc>
    <defs></defs>
    <g id="Boilerplate" stroke="none" stroke-width="1" fill="none" fill-rule="evenodd">
        <g id="Large-Devices:-Desktops---12-col-Copy-7" transform="translate(-1103.000000, -768.000000)" fill-rule="nonzero" fill="#61BEE2">
            <g id="iconfinder_file_7_1377263" transform="translate(1103.000000, 768.000000)">
                <path d="M45,62 L5,62 C2.25,62 0,59.75 0,57 L0,5 C0,2.25 2.25,0 5,0 L25.35,0 C26.7,0 27.95,0.5 28.9,1.45 L48.55,21.1 C49.5,22.05 50,23.3 50,24.65 L50,57 C50,59.75 47.75,62 45,62 Z M5,2 C3.35,2 2,3.35 2,5 L2,57 C2,58.65 3.35,60 5,60 L45,60 C46.65,60 48,58.65 48,57 L48,24.65 C48,23.85 47.7,23.1 47.1,22.55 L27.45,2.9 C26.9,2.3 26.15,2 25.35,2 L5,2 Z" id="Shape"></path>
                <path d="M15.6,44.75 C15.25,44.75 14.85,44.65 14.55,44.45 C13.95,44.1 13.6,43.45 13.6,42.75 L13.6,24 C13.6,23.3 13.95,22.65 14.55,22.3 C15.15,21.95 15.9,21.9 16.5,22.25 L35.25,32.05 C35.95,32.4 36.35,33.1 36.3,33.85 C36.3,34.6 35.85,35.3 35.15,35.6 L16.5,44.55 C16.2,44.7 15.9,44.75 15.6,44.75 Z M15.6,24 L15.6,42.75 L34.35,33.8 L15.6,24 Z" id="Shape"></path>
            </g>
        </g>
    </g>
</svg>