<?xml version="1.0" encoding="UTF-8" standalone="no"?>
<svg width="50px" height="62px" viewBox="0 0 50 62" version="1.1" xmlns="http://www.w3.org/2000/svg" xmlns:xlink="http://www.w3.org/1999/xlink">
    <!-- Generator: Sketch 47 (45396) - http://www.bohemiancoding.com/sketch -->
    <title>iconfinder_file_3_1377256</title>
    <desc>Created with Sketch.</desc>
    <defs></defs>
    <g id="Boilerplate" stroke="none" stroke-width="1" fill="none" fill-rule="evenodd">
        <g id="Large-Devices:-Desktops---12-col-Copy-7" transform="translate(-1163.000000, -508.000000)" fill-rule="nonzero" fill="#61BEE2">
            <g id="iconfinder_file_3_1377256" transform="translate(1163.000000, 508.000000)">
                <path d="M45,62 L5,62 C2.25,62 0,59.75 0,57 L0,5 C0,2.25 2.25,0 5,0 L25.35,0 C26.7,0 27.95,0.5 28.9,1.45 L48.55,21.1 C49.5,22.05 50,23.3 50,24.65 L50,57 C50,59.75 47.75,62 45,62 Z M5,2 C3.35,2 2,3.35 2,5 L2,57 C2,58.65 3.35,60 5,60 L45,60 C46.65,60 48,58.65 48,57 L48,24.65 C48,23.85 47.7,23.1 47.1,22.55 L27.45,2.9 C26.9,2.3 26.15,2 25.35,2 L5,2 Z" id="Shape"></path>
                <path d="M24,47 C23.35,47 22.7,46.8 22.15,46.4 L11.65,38.25 C11.3,37.95 10.8,37.95 10.4,38.25 L1.65,45.25 L0.4,43.7 L9.15,36.7 C10.25,35.85 11.75,35.8 12.85,36.65 L23.4,44.75 C23.75,45 24.25,45.05 24.6,44.75 L36.8,35.5 C37.8,34.75 39.15,34.7 40.2,35.35 L49.55,41.15 L48.5,42.85 L39.15,37.05 C38.8,36.85 38.35,36.85 38,37.1 L25.8,46.35 C25.3,46.8 24.65,47 24,47 Z" id="Shape"></path>
                <path d="M19.5,28 C15.9,28 13,25.1 13,21.5 C13,17.9 15.9,15 19.5,15 C23.1,15 26,17.9 26,21.5 C26,25.1 23.1,28 19.5,28 Z M19.5,17 C17,17 15,19 15,21.5 C15,24 17,26 19.5,26 C22,26 24,24 24,21.5 C24,19 22,17 19.5,17 Z" id="Shape"></path>
            </g>
        </g>
    </g>
</svg>