<?xml version="1.0" encoding="UTF-8" standalone="no"?>
<svg width="50px" height="62px" viewBox="0 0 50 62" version="1.1" xmlns="http://www.w3.org/2000/svg" xmlns:xlink="http://www.w3.org/1999/xlink">
    <!-- Generator: Sketch 47 (45396) - http://www.bohemiancoding.com/sketch -->
    <title>iconfinder_file_5_1377253</title>
    <desc>Created with Sketch.</desc>
    <defs></defs>
    <g id="Boilerplate" stroke="none" stroke-width="1" fill="none" fill-rule="evenodd">
        <g id="Large-Devices:-Desktops---12-col-Copy-7" transform="translate(-1163.000000, -682.000000)" fill-rule="nonzero" fill="#1D409D">
            <g id="iconfinder_file_5_1377253" transform="translate(1163.000000, 682.000000)">
                <path d="M45,62 L5,62 C2.25,62 0,59.75 0,57 L0,5 C0,2.25 2.25,0 5,0 L25.35,0 C26.7,0 27.95,0.5 28.9,1.45 L48.55,21.1 C49.5,22.05 50,23.3 50,24.65 L50,57 C50,59.75 47.75,62 45,62 Z M5,2 C3.35,2 2,3.35 2,5 L2,57 C2,58.65 3.35,60 5,60 L45,60 C46.65,60 48,58.65 48,57 L48,24.65 C48,23.85 47.7,23.1 47.1,22.55 L27.45,2.9 C26.9,2.3 26.15,2 25.35,2 L5,2 Z" id="Shape"></path>
                <path d="M32.35,47 L28.2,47 L25.9,38 C25.8,37.7 25.65,37 25.45,36 C25.25,35 25.1,34.3 25.1,34 C25.05,34.4 24.95,35.1 24.75,36.05 C24.55,37 24.4,37.65 24.3,38.05 L22,47 L17.85,47 L13.5,29.85 L17.05,29.85 L19.25,39.2 C19.65,40.95 19.9,42.4 20.1,43.7 C20.15,43.25 20.25,42.55 20.4,41.65 C20.55,40.75 20.75,40 20.85,39.5 L23.35,29.9 L26.8,29.9 L29.3,39.5 C29.4,39.95 29.55,40.6 29.7,41.45 C29.85,42.3 30,43.1 30.1,43.7 C30.2,43.1 30.3,42.35 30.5,41.4 C30.7,40.45 30.85,39.75 30.95,39.2 L33.15,29.85 L36.7,29.85 L32.35,47 Z" id="Shape"></path>
            </g>
        </g>
    </g>
</svg>