<?xml version="1.0" encoding="UTF-8" standalone="no"?>
<svg width="50px" height="62px" viewBox="0 0 50 62" version="1.1" xmlns="http://www.w3.org/2000/svg" xmlns:xlink="http://www.w3.org/1999/xlink">
    <!-- Generator: Sketch 47 (45396) - http://www.bohemiancoding.com/sketch -->
    <title>iconfinder_file_9_1377244</title>
    <desc>Created with Sketch.</desc>
    <defs></defs>
    <g id="Boilerplate" stroke="none" stroke-width="1" fill="none" fill-rule="evenodd">
        <g id="Large-Devices:-Desktops---12-col-Copy-7" transform="translate(-1163.000000, -768.000000)" fill-rule="nonzero" fill="#00B8DF">
            <g id="iconfinder_file_9_1377244" transform="translate(1163.000000, 768.000000)">
                <path d="M45,62 L5,62 C2.25,62 0,59.75 0,57 L0,5 C0,2.25 2.25,0 5,0 L25.35,0 C26.7,0 27.95,0.5 28.9,1.45 L48.55,21.1 C49.5,22.05 50,23.3 50,24.65 L50,57 C50,59.75 47.75,62 45,62 Z M5,2 C3.35,2 2,3.35 2,5 L2,57 C2,58.65 3.35,60 5,60 L45,60 C46.65,60 48,58.65 48,57 L48,24.65 C48,23.85 47.7,23.1 47.1,22.55 L27.45,2.9 C26.9,2.3 26.15,2 25.35,2 L5,2 Z" id="Shape"></path>
                <g id="Group" transform="translate(12.000000, 23.000000)">
                    <path d="M9.5,20.5 L7.5,20.5 L7.5,5.25 C7.5,4.35 8.1,3.55 8.95,3.3 L19.45,0.55 C20.05,0.4 20.7,0.5 21.2,0.9 C21.7,1.3 22,1.85 22,2.5 L22,17.7 L20,17.7 L20,2.5 L9.5,5.25 L9.5,20.5 Z" id="Shape"></path>
                    <g transform="translate(0.000000, 17.000000)">
                        <ellipse id="Oval" cx="4.75" cy="3.5" rx="3.75" ry="2.5"></ellipse>
                        <path d="M4.75,7 C2.1,7 0,5.45 0,3.5 C0,1.55 2.1,0 4.75,0 C7.4,0 9.5,1.55 9.5,3.5 C9.5,5.45 7.4,7 4.75,7 Z M4.75,2 C3.2,2 2,2.8 2,3.5 C2,4.2 3.2,5 4.75,5 C6.3,5 7.5,4.2 7.5,3.5 C7.5,2.8 6.3,2 4.75,2 Z" id="Shape"></path>
                    </g>
                    <g transform="translate(12.500000, 13.500000)">
                        <ellipse id="Oval" cx="4.75" cy="4.2" rx="3.75" ry="2.7"></ellipse>
                        <path d="M4.75,7.85 C2.1,7.85 0,6.25 0,4.15 C0,2.1 2.1,0.45 4.75,0.45 C7.4,0.45 9.5,2.05 9.5,4.15 C9.5,6.25 7.4,7.85 4.75,7.85 Z M4.75,2.5 C3.3,2.5 2,3.3 2,4.2 C2,5 3.15,5.9 4.75,5.9 C6.35,5.9 7.5,5 7.5,4.2 C7.5,3.3 6.2,2.5 4.75,2.5 Z" id="Shape"></path>
                    </g>
                </g>
            </g>
        </g>
    </g>
</svg>