<?xml version="1.0" encoding="UTF-8" standalone="no"?>
<svg width="50px" height="62px" viewBox="0 0 50 62" version="1.1" xmlns="http://www.w3.org/2000/svg" xmlns:xlink="http://www.w3.org/1999/xlink">
    <!-- Generator: Sketch 47 (45396) - http://www.bohemiancoding.com/sketch -->
    <title>iconfinder_file-expand_Pdf_1379078</title>
    <desc>Created with Sketch.</desc>
    <defs></defs>
    <g id="Boilerplate" stroke="none" stroke-width="1" fill="none" fill-rule="evenodd">
        <g id="Large-Devices:-Desktops---12-col-Copy-7" transform="translate(-1098.000000, -677.000000)" fill-rule="nonzero">
            <g id="iconfinder_file-expand_Pdf_1379078" transform="translate(1098.000000, 677.000000)">
                <path d="M45,62 L5,62 C2.243,62 0,59.757 0,57 L0,5 C0,2.243 2.243,0 5,0 L25.3435,0 C26.679,0 27.935,0.5205 28.8785,1.4645 L48.5355,21.1215 C49.48,22.066 50,23.321 50,24.6565 L50,57 C50,59.757 47.757,62 45,62 Z M5,2 C3.3455,2 2,3.3455 2,5 L2,57 C2,58.6545 3.3455,60 5,60 L45,60 C46.6545,60 48,58.6545 48,57 L48,24.6565 C48,23.867 47.6795,23.094 47.1215,22.5355 L27.4645,2.8785 C26.898,2.312 26.1445,2 25.3435,2 L5,2 Z" id="Shape" fill="#FD4233"></path>
                <path d="M40.605,39.16 C40.57,38.905 40.365,38.585 40.145,38.37 C39.515,37.75 38.13,37.425 36.02,37.395 C34.59,37.38 32.87,37.505 31.06,37.76 C30.25,37.295 29.415,36.785 28.76,36.17 C26.995,34.525 25.525,32.24 24.605,29.725 C24.665,29.49 24.715,29.285 24.765,29.075 C24.765,29.075 25.755,23.435 25.495,21.525 C25.46,21.265 25.435,21.19 25.365,20.985 L25.28,20.765 C25.01,20.14 24.48,19.48 23.65,19.515 L23.16,19.5 L23.15,19.5 C22.22,19.5 21.47,19.975 21.27,20.68 C20.67,22.9 21.29,26.225 22.415,30.525 L22.125,31.225 C21.32,33.195 20.31,35.175 19.42,36.92 L19.305,37.145 C18.365,38.98 17.515,40.54 16.74,41.86 L15.945,42.28 C15.885,42.31 14.52,43.035 14.2,43.225 C11.485,44.85 9.685,46.69 9.385,48.15 C9.29,48.62 9.36,49.215 9.845,49.49 L10.615,49.88 C10.95,50.045 11.305,50.13 11.665,50.13 C13.6,50.13 15.845,47.72 18.94,42.32 C22.51,41.16 26.58,40.19 30.145,39.66 C32.86,41.185 36.2,42.25 38.31,42.25 C38.685,42.25 39.01,42.215 39.27,42.145 C39.675,42.035 40.015,41.805 40.225,41.495 C40.635,40.88 40.715,40.03 40.605,39.16 Z M11.245,48.665 C11.595,47.7 12.995,45.79 15.06,44.1 C15.19,43.995 15.51,43.695 15.8,43.415 C13.64,46.86 12.195,48.23 11.245,48.665 Z M23.475,20.5 C24.095,20.5 24.45,22.065 24.48,23.535 C24.51,25.005 24.165,26.035 23.74,26.8 C23.385,25.67 23.215,23.89 23.215,22.725 C23.215,22.725 23.19,20.5 23.475,20.5 Z M19.825,40.57 C20.26,39.795 20.71,38.975 21.17,38.11 C22.295,35.985 23.005,34.325 23.53,32.96 C24.58,34.87 25.89,36.495 27.425,37.795 C27.62,37.955 27.825,38.12 28.035,38.285 C24.91,38.9 22.205,39.655 19.825,40.57 Z M39.54,40.395 C39.35,40.51 38.805,40.58 38.455,40.58 C37.325,40.58 35.92,40.065 33.955,39.22 C34.71,39.165 35.405,39.135 36.025,39.135 C37.16,39.135 37.495,39.13 38.61,39.415 C39.72,39.7 39.735,40.275 39.54,40.395 Z" id="Shape" fill="#FF402F"></path>
            </g>
        </g>
    </g>
</svg>