<?xml version="1.0" encoding="UTF-8" standalone="no"?>
<svg width="50px" height="62px" viewBox="0 0 50 62" version="1.1" xmlns="http://www.w3.org/2000/svg" xmlns:xlink="http://www.w3.org/1999/xlink">
    <!-- Generator: Sketch 47 (45396) - http://www.bohemiancoding.com/sketch -->
    <title>iconfinder_file_11_1377261</title>
    <desc>Created with Sketch.</desc>
    <defs></defs>
    <g id="Boilerplate" stroke="none" stroke-width="1" fill="none" fill-rule="evenodd">
        <g id="Large-Devices:-Desktops---12-col-Copy-7" transform="translate(-1103.000000, -508.000000)" fill-rule="nonzero" fill="#FF5A29">
            <g id="iconfinder_file_11_1377261" transform="translate(1103.000000, 508.000000)">
                <path d="M45,62 L5,62 C2.25,62 0,59.75 0,57 L0,5 C0,2.25 2.25,0 5,0 L25.35,0 C26.7,0 27.95,0.5 28.9,1.45 L48.55,21.1 C49.5,22.05 50,23.3 50,24.65 L50,57 C50,59.75 47.75,62 45,62 Z M5,2 C3.35,2 2,3.35 2,5 L2,57 C2,58.65 3.35,60 5,60 L45,60 C46.65,60 48,58.65 48,57 L48,24.65 C48,23.85 47.7,23.1 47.1,22.55 L27.45,2.9 C26.9,2.3 26.15,2 25.35,2 L5,2 Z" id="Shape"></path>
                <path d="M31,35.2 C31,37.05 30.4,38.45 29.25,39.45 C28.1,40.45 26.45,40.9 24.35,40.9 L22.8,40.9 L22.8,47 L19.15,47 L19.15,29.85 L24.6,29.85 C26.7,29.85 28.25,30.3 29.35,31.2 C30.45,32.1 31,33.45 31,35.2 Z M22.8,37.95 L24,37.95 C25.1,37.95 25.95,37.75 26.5,37.3 C27.05,36.85 27.35,36.2 27.35,35.35 C27.35,34.5 27.1,33.85 26.65,33.45 C26.2,33.05 25.45,32.85 24.45,32.85 L22.8,32.85 L22.8,37.95 Z" id="Shape"></path>
            </g>
        </g>
    </g>
</svg>