<?xml version="1.0" encoding="UTF-8" standalone="no"?>
<svg width="50px" height="62px" viewBox="0 0 50 62" version="1.1" xmlns="http://www.w3.org/2000/svg" xmlns:xlink="http://www.w3.org/1999/xlink">
    <!-- Generator: Sketch 47 (45396) - http://www.bohemiancoding.com/sketch -->
    <title>iconfinder_file_10_1377262</title>
    <desc>Created with Sketch.</desc>
    <defs></defs>
    <g id="Boilerplate" stroke="none" stroke-width="1" fill="none" fill-rule="evenodd">
        <g id="Large-Devices:-Desktops---12-col-Copy-7" transform="translate(-1098.000000, -586.000000)" fill-rule="nonzero" fill="#007732">
            <g id="iconfinder_file_10_1377262" transform="translate(1098.000000, 586.000000)">
                <polygon id="Shape" points="33 47 28.85 47 24.85 40.5 20.85 47 17 47 22.7 38.15 17.35 29.85 21.35 29.85 25.05 36 28.65 29.85 32.55 29.85 27.15 38.35"></polygon>
                <path d="M45,62 L5,62 C2.25,62 0,59.75 0,57 L0,5 C0,2.25 2.25,0 5,0 L25.35,0 C26.7,0 27.95,0.5 28.9,1.45 L48.55,21.1 C49.5,22.05 50,23.3 50,24.65 L50,57 C50,59.75 47.75,62 45,62 Z M5,2 C3.35,2 2,3.35 2,5 L2,57 C2,58.65 3.35,60 5,60 L45,60 C46.65,60 48,58.65 48,57 L48,24.65 C48,23.85 47.7,23.1 47.1,22.55 L27.45,2.9 C26.9,2.3 26.15,2 25.35,2 L5,2 Z" id="Shape"></path>
            </g>
        </g>
    </g>
</svg>