<?xml version="1.0" encoding="UTF-8" standalone="no"?>
<svg width="90px" height="101px" viewBox="0 0 90 101" version="1.1" xmlns="http://www.w3.org/2000/svg" xmlns:xlink="http://www.w3.org/1999/xlink">
    <!-- Generator: Sketch 47 (45396) - http://www.bohemiancoding.com/sketch -->
    <title>Page 1</title>
    <desc>Created with Sketch.</desc>
    <defs>
        <polygon id="path-1" points="82.9346367 77 0.000192533318 77 0.000192533318 0.412675197 82.9346367 0.412675197"></polygon>
    </defs>
    <g id="Design" stroke="none" stroke-width="1" fill="none" fill-rule="evenodd">
        <g id="Page-1">
            <g id="Group-3" transform="translate(0.000000, 23.388000)">
                <mask id="mask-2" fill="white">
                    <use xlink:href="#path-1"></use>
                </mask>
                <g id="Clip-2"></g>
                <path d="M54.8325,15.3682 C51.9375,19.5252 49.1805,23.7872 46.1105,27.8102 C42.8935,32.0262 39.1575,35.8532 36.0395,40.1342 C30.7735,47.3662 25.8155,54.8222 20.7345,62.1752 C12.5425,57.8062 8.6615,58.6192 2.9125,65.8452 C-0.1765,63.4102 -0.9595,59.6042 1.2965,56.2412 C5.3855,50.1472 9.5965,44.1312 13.9065,38.1922 C16.0615,35.2212 19.6095,34.8022 22.7275,36.8772 C25.0005,38.3902 27.2105,40.0002 29.6405,41.7012 C31.4815,39.0562 33.2665,36.4972 35.0425,33.9322 C35.1785,33.7382 35.4045,33.4612 35.3515,33.3012 C34.2605,30.0022 36.7935,28.0512 38.2415,25.7782 C42.7445,18.7062 47.3715,11.7122 51.9735,4.7022 C54.5085,0.8402 58.8485,-0.4548 64.2375,0.9832 C68.4465,2.1072 72.0415,6.0532 71.7845,10.2532 C71.4955,14.9672 70.5175,19.6452 69.7365,24.3212 C69.1405,27.8922 68.3165,31.4252 67.7495,34.9992 C67.6125,35.8572 67.9495,36.8742 68.3105,37.7142 C72.9745,48.5842 77.6915,59.4312 82.3745,70.2942 C83.4355,72.7562 82.9725,74.8282 81.1275,76.1162 C79.4015,77.3212 77.6245,77.3102 75.9995,75.9852 C75.3345,75.4442 74.8225,74.6592 74.3895,73.9002 C67.8475,62.4202 61.4005,50.8842 54.7715,39.4542 C51.9425,34.5762 52.3875,29.5992 53.4755,24.4652 C54.1065,21.4842 54.6415,18.4842 55.2195,15.4922 C55.0905,15.4512 54.9615,15.4092 54.8325,15.3682" id="Fill-1" fill="#2FBFCC" mask="url(#mask-2)"></path>
            </g>
            <path d="M80.6592,10.9681 C80.7002,16.8721 75.9292,21.7191 69.9922,21.8031 C63.9572,21.8881 59.1932,17.1371 59.1172,10.9571 C59.0412,4.8841 63.8322,0.0071 69.8812,0.0001 C75.8802,-0.0069 80.6172,4.8131 80.6592,10.9681" id="Fill-4" fill="#2FBFCC"></path>
            <path d="M51.499,63.1009 C53.715,66.9459 55.738,70.3809 57.659,73.8719 C57.914,74.3349 57.855,75.1819 57.602,75.6789 C56.15,78.5349 54.833,81.5029 53.025,84.1259 C49.732,88.9029 46.134,93.4699 42.651,98.1159 C40.822,100.5539 38.749,101.0169 36.645,99.4929 C34.689,98.0749 34.47,96.0709 36.09,93.5359 C38.086,90.4119 40.003,87.2239 42.203,84.2469 C46.28,78.7279 49.188,72.7289 50.53,65.9819 C50.694,65.1539 51.066,64.3659 51.499,63.1009" id="Fill-6" fill="#2FBFCC"></path>
            <g id="Group-10" transform="translate(71.000000, 39.388000)" fill="#2FBFCC">
                <path d="M3.2075,0.1782 C3.6585,5.5932 8.2715,7.5532 11.5385,10.6132 C13.2985,12.2622 15.2575,13.6982 17.0425,15.3222 C18.6365,16.7712 18.8505,18.8262 17.7135,20.2702 C16.4055,21.9302 14.5025,22.1912 12.6115,20.7112 C8.8075,17.7362 5.0815,14.6602 1.3615,11.5792 C1.0055,11.2842 0.6815,10.6212 0.7495,10.1942 C1.2845,6.9012 1.9185,3.6232 2.5215,0.3412 C2.7495,0.2862 2.9785,0.2322 3.2075,0.1782" id="Fill-8"></path>
            </g>
            <path d="M19.5503,93.9139 C19.5313,97.5339 16.6963,100.3779 13.1213,100.3649 C9.5363,100.3509 6.7643,97.5239 6.7463,93.8639 C6.7273,90.1049 9.6243,87.1969 13.2903,87.2929 C16.8843,87.3889 19.5693,90.2279 19.5503,93.9139" id="Fill-11" fill="#2FBFCC"></path>
        </g>
    </g>
</svg>